# xmcd
#
# Track frame offsets: 
#        150
#        21668
#        42493
#        60131
#        80434
#        102409
#        122385
#        141996
#        165995
#        183660
#        198059
#        215750
#
# Disc length: 3102 seconds
#
# Revision: 0
# Processed by: cddbd v1.5.2PL0 Copyright (c) Steve Scherf et al.
# Submitted via: ExactAudioCopy v1.2
#
DISCID=a40c1c0c
DTITLE=陶辚竹 - 等风来
DYEAR=2017
DGENRE=Pop
TTITLE0=金枝欲孽
TTITLE1=幽兰操
TTITLE2=在树上唱歌
TTITLE3=一直很安静
TTITLE4=我最亲爱的
TTITLE5=春泥
TTITLE6=你好吗，天气好吗
TTITLE7=一首情歌
TTITLE8=亲爱的朋友
TTITLE9=遇见
TTITLE10=知道不知道
TTITLE11=时间都去哪儿了
EXTD=
EXTT0=
EXTT1=
EXTT2=
EXTT3=
EXTT4=
EXTT5=
EXTT6=
EXTT7=
EXTT8=
EXTT9=
EXTT10=
EXTT11=
PLAYORDER=
